<?xml version="1.0" encoding="UTF-8"?>
<svg version="1.1" xmlns="http://www.w3.org/2000/svg" width="51" height="65">
<path d="M0 0 C16.83 0 33.66 0 51 0 C51 21.45 51 42.9 51 65 C34.17 65 17.34 65 0 65 C0 43.55 0 22.1 0 0 Z " fill="#1E1E1E" transform="translate(0,0)"/>
<path d="M0 0 C4.29 0.33 8.58 0.66 13 1 C13 1.66 13 2.32 13 3 C10.03 3 7.06 3 4 3 C4.33 18.84 4.66 34.68 5 51 C5.66 51.33 6.32 51.66 7 52 C8.98 48.37 10.96 44.74 13 41 C13.66 41 14.32 41 15 41 C15 40.01 15 39.02 15 38 C15.66 38 16.32 38 17 38 C17.37125 38.474375 17.7425 38.94875 18.125 39.4375 C21.02268581 41.85223817 24.37105437 41.71588326 28 42 C35.39144004 42.57868926 35.39144004 42.57868926 37.98046875 44.37109375 C39.58374032 46.93264258 39.31241789 49.06327181 39 52 C37 54 37 54 34.43359375 54.23046875 C33.44488281 54.21628906 32.45617188 54.20210937 31.4375 54.1875 C30.44621094 54.18105469 29.45492188 54.17460938 28.43359375 54.16796875 C26 54 26 54 25 53 C24.95919217 51.00041636 24.95745644 48.99954746 25 47 C21.7 47 18.4 47 15 47 C15.226875 48.5675 15.45375 50.135 15.6875 51.75 C15.81511719 52.63171875 15.94273438 53.5134375 16.07421875 54.421875 C17.37381209 58.04099569 18.63484831 59.11655182 22 61 C25.3484256 61.5687757 28.61090208 61.55894083 32 61.5 C33.33417969 61.52320312 33.33417969 61.52320312 34.6953125 61.546875 C38.92530607 61.52162131 41.37818027 61.37436086 45.0625 59.15625 C47.19947865 57.06631533 47.19947865 57.06631533 48 54 C48.99 54 49.98 54 51 54 C51 57.63 51 61.26 51 65 C34.17 65 17.34 65 0 65 C0 43.55 0 22.1 0 0 Z " fill="#222222" transform="translate(0,0)"/>
<path d="M0 0 C0.33 0 0.66 0 1 0 C1.66 1.98 2.32 3.96 3 6 C4.02480469 6.17015625 5.04960937 6.3403125 6.10546875 6.515625 C7.46628646 6.75963369 8.82695608 7.00446928 10.1875 7.25 C11.19780273 7.41435547 11.19780273 7.41435547 12.22851562 7.58203125 C16.8254499 8.4341459 19.69424946 9.68820604 23 13 C26.04588582 17.49981319 25.50395958 22.78208008 25 28 C23.41771382 31.79748683 21.57584363 33.99485404 18 36 C14.70494699 36.50221998 11.45311898 36.50960496 8.125 36.5 C7.23941406 36.52835938 6.35382812 36.55671875 5.44140625 36.5859375 C1.0516445 36.59902174 -2.05674668 36.45032145 -5.5703125 33.65625 C-9.34335286 29.53138273 -9.10205774 26.40906002 -9 21 C-5.7 21 -2.4 21 1 21 C1.33 22.98 1.66 24.96 2 27 C3.81242052 27.02687279 5.62495233 27.04633715 7.4375 27.0625 C8.44683594 27.07410156 9.45617187 27.08570312 10.49609375 27.09765625 C12.94021067 27.28612676 12.94021067 27.28612676 14 26 C14.25005386 23.04182893 14.25005386 23.04182893 14 20 C11.24883185 17.24883185 8.25815803 17.13274672 4.5625 16.5 C-2.59988839 15.26674107 -2.59988839 15.26674107 -6 13 C-5.34215037 9.70319035 -4.10579427 7.15882078 -2.4375 4.25 C-1.98246094 3.45078125 -1.52742188 2.6515625 -1.05859375 1.828125 C-0.70925781 1.22484375 -0.35992187 0.6215625 0 0 Z " fill="#F9F9F9" transform="translate(24,26)"/>
<path d="M0 0 C3.3 0 6.6 0 10 0 C10.17488222 5.19188784 10.30091422 10.38201082 10.38452148 15.57617188 C10.41942084 17.33754386 10.46696054 19.0987177 10.52807617 20.859375 C10.92283349 32.53623007 10.47564093 40.47876172 3 50 C2.01 49.34 1.02 48.68 0 48 C-0.36076355 45.93722534 -0.36076355 45.93722534 -0.34057617 43.36669922 C-0.34034958 42.40585419 -0.34012299 41.44500916 -0.33988953 40.45504761 C-0.32440567 39.41542877 -0.30892181 38.37580994 -0.29296875 37.3046875 C-0.28872391 36.24210724 -0.28447906 35.17952698 -0.28010559 34.08474731 C-0.26327389 30.68124354 -0.22561303 27.27832567 -0.1875 23.875 C-0.17245899 21.57162312 -0.15876958 19.26823698 -0.14648438 16.96484375 C-0.11335559 11.30966909 -0.06154214 5.65493397 0 0 Z " fill="#F7F7F7" transform="translate(4,3)"/>
<path d="M0 0 C4.29 0.33 8.58 0.66 13 1 C13 1.66 13 2.32 13 3 C10.03 3 7.06 3 4 3 C4.04600342 4.4319873 4.09200684 5.86397461 4.1394043 7.33935547 C4.30685555 12.68774677 4.45260539 18.03655327 4.59204102 23.38574219 C4.65519512 25.69417807 4.72411534 28.0024641 4.79907227 30.31054688 C4.90622701 33.64169313 4.99215023 36.97283988 5.07421875 40.3046875 C5.11157639 41.32488983 5.14893402 42.34509216 5.18742371 43.39620972 C5.31144397 49.40056689 4.62866946 54.3444013 2.65364075 60.02835083 C1.8951073 61.97020402 1.8951073 61.97020402 2 64 C1.34 64 0.68 64 0 64 C0 42.88 0 21.76 0 0 Z " fill="#1A1A1A" transform="translate(0,0)"/>
<path d="M0 0 C0.33 0.66 0.66 1.32 1 2 C0.0625 4.125 0.0625 4.125 -1 6 C0.216875 6.061875 1.43375 6.12375 2.6875 6.1875 C7.17383464 6.72840559 9.14764741 8.45616799 12 12 C13.60725635 15.21451269 13.05748185 18.43612536 13 22 C10.03 22 7.06 22 4 22 C3.34 20.02 2.68 18.04 2 16 C-1.3 15.67 -4.6 15.34 -8 15 C-6.85657478 12.68628057 -5.71038936 10.37400323 -4.5625 8.0625 C-4.23701172 7.40314453 -3.91152344 6.74378906 -3.57617188 6.06445312 C-1.11328125 1.11328125 -1.11328125 1.11328125 0 0 Z " fill="#F3F3F3" transform="translate(35,7)"/>
<path d="M0 0 C1.93833996 0.08715017 3.8757429 0.19532964 5.8125 0.3125 C7.43091797 0.39951172 7.43091797 0.39951172 9.08203125 0.48828125 C12 1 12 1 13.8671875 2.3515625 C15.6204734 4.90289578 15.31939026 6.99773158 15 10 C13 12 13 12 10.43359375 12.23046875 C9.44488281 12.21628906 8.45617187 12.20210937 7.4375 12.1875 C6.44621094 12.18105469 5.45492188 12.17460938 4.43359375 12.16796875 C2 12 2 12 1 11 C0.95919217 9.00041636 0.95745644 6.99954746 1 5 C-1.64 5 -4.28 5 -7 5 C-7 4.67 -7 4.34 -7 4 C-5.35 4 -3.7 4 -2 4 C-2 3.34 -2 2.68 -2 2 C-1.34 2 -0.68 2 0 2 C0 1.34 0 0.68 0 0 Z " fill="#181818" transform="translate(24,42)"/>
<path d="M0 0 C0.99 0 1.98 0 3 0 C3 3.63 3 7.26 3 11 C-1.95 11 -6.9 11 -12 11 C-12 10.67 -12 10.34 -12 10 C-15.96 9.67 -19.92 9.34 -24 9 C-24 8.67 -24 8.34 -24 8 C-22.13794922 7.96132813 -22.13794922 7.96132813 -20.23828125 7.921875 C-18.59631972 7.86557918 -16.954394 7.80823217 -15.3125 7.75 C-14.08756836 7.72873047 -14.08756836 7.72873047 -12.83789062 7.70703125 C-7.69456771 7.49879955 -4.66587448 6.96232587 -1 3 C-0.67 2.01 -0.34 1.02 0 0 Z " fill="#2E2E2E" transform="translate(48,54)"/>
<path d="M0 0 C0.66 0 1.32 0 2 0 C1 7.42857143 1 7.42857143 0 11 C2.97 11.495 2.97 11.495 6 12 C2.67465243 13.10844919 0.37817425 12.84454356 -3 12 C-2.649375 10.906875 -2.29875 9.81375 -1.9375 8.6875 C-0.66960546 5.09079627 -0.66960546 5.09079627 -2 2 C-1.34 2 -0.68 2 0 2 C0 1.34 0 0.68 0 0 Z " fill="#0C0C0C" transform="translate(37,1)"/>
<path d="M0 0 C0.33 1.32 0.66 2.64 1 4 C0.34 4 -0.32 4 -1 4 C-1 5.65 -1 7.3 -1 9 C-1.99 8.67 -2.98 8.34 -4 8 C-2.68 5.36 -1.36 2.72 0 0 Z " fill="#0D0D0D" transform="translate(11,45)"/>
<path d="M0 0 C0.99 0 1.98 0 3 0 C3 0.66 3 1.32 3 2 C3.99 2 4.98 2 6 2 C6 3.65 6 5.3 6 7 C1.125 2.25 1.125 2.25 0 0 Z " fill="#0F0F0F" transform="translate(43,35)"/>
</svg>
